<svg width="24" height="24" viewBox="0 0 24 24" fill="none" xmlns="http://www.w3.org/2000/svg">
<path fill-rule="evenodd" clip-rule="evenodd" d="M12.8569 7.35587V2.65014C12.8569 2.29107 12.5663 2 12.2079 2H11.5468C11.1884 2 10.8978 2.29107 10.8978 2.65014V7.35587C10.8978 7.71492 11.1884 8.00599 11.5468 8.00599H12.2079C12.5663 8.00599 12.8569 7.71492 12.8569 7.35587ZM13.8948 8.41403L14.443 8.78397C14.7403 8.98462 15.1437 8.90584 15.344 8.60809L17.969 4.70552C18.1693 4.40774 18.0907 4.0037 17.7934 3.80309L17.2452 3.43311C16.9479 3.23247 16.5446 3.31123 16.3443 3.60901L13.7192 7.51158C13.519 7.80934 13.5976 8.21337 13.8948 8.41403ZM15.8627 10.6802L15.6144 10.0665C15.4798 9.73374 15.64 9.35466 15.9722 9.21981L20.3262 7.45252C20.6584 7.3177 21.0369 7.47815 21.1715 7.81093L21.4197 8.42457C21.5544 8.75732 21.3942 9.13643 21.062 9.27125L16.708 11.0385C16.3758 11.1734 15.9973 11.0129 15.8627 10.6802ZM21.4848 12.8689L16.8881 11.8976C16.5373 11.8235 16.193 12.0483 16.119 12.3996L15.9826 13.0474C15.9086 13.3988 16.133 13.7436 16.4837 13.8178L21.0804 14.789C21.4312 14.8631 21.7755 14.6384 21.8495 14.2871L21.9859 13.6392C22.0599 13.2879 21.8355 12.943 21.4848 12.8689ZM15.2358 14.6167C15.4931 14.3667 15.904 14.3731 16.1535 14.6308L19.4239 18.0091C19.6734 18.2669 19.6671 18.6785 19.4097 18.9284L18.9352 19.3894C18.6779 19.6393 18.2669 19.633 18.0174 19.3752L14.747 15.997C14.4975 15.7392 14.5038 15.3276 14.7612 15.0776L15.2358 14.6167ZM14.0199 16.4864C13.9568 16.133 13.6195 15.8978 13.2666 15.961L12.616 16.0777C12.2631 16.1409 12.0283 16.4787 12.0914 16.8322L12.9191 21.4643C12.9823 21.8177 13.3195 22.053 13.6723 21.9897L14.323 21.8731C14.6759 21.8098 14.9107 21.472 14.8476 21.1186L14.0199 16.4864ZM10.2789 15.7064L10.8836 15.9738C11.2115 16.1189 11.3599 16.5027 11.2152 16.8312L9.3176 21.1359C9.17282 21.4644 8.78963 21.6131 8.46171 21.4681L7.85703 21.2006C7.52912 21.0556 7.38065 20.6718 7.52543 20.3433L9.42298 16.0385C9.56776 15.7101 9.95096 15.5614 10.2789 15.7064ZM8.89989 14.6506L8.5476 14.0904C8.35654 13.7866 7.95581 13.6954 7.65249 13.8868L3.67746 16.3948C3.37417 16.5861 3.28318 16.9876 3.47421 17.2914L3.82653 17.8516C4.01756 18.1554 4.41833 18.2466 4.72162 18.0552L8.69664 15.5472C8.99993 15.3559 9.09095 14.9544 8.89989 14.6506ZM8.01376 11.7812L7.9934 12.443C7.98237 12.8019 7.68298 13.0839 7.32471 13.0728L2.62904 12.928C2.27078 12.9169 1.98928 12.617 2.00031 12.2581L2.02065 11.5963C2.03168 11.2374 2.33108 10.9555 2.68938 10.9665L7.38501 11.1114C7.74331 11.1224 8.02481 11.4223 8.01376 11.7812Z" fill="black"/>
</svg>
